<?xml version="1.0" standalone="no"?>
<!DOCTYPE svg PUBLIC "-//W3C//DTD SVG 20010904//EN"
 "http://www.w3.org/TR/2001/REC-SVG-20010904/DTD/svg10.dtd">
<svg version="1.0" xmlns="http://www.w3.org/2000/svg"
 width="512.000000pt" height="512.000000pt" viewBox="0 0 512.000000 512.000000"
 preserveAspectRatio="xMidYMid meet">

<g transform="translate(0.000000,512.000000) scale(0.100000,-0.100000)"
fill="#000000" stroke="none">
<path d="M4925 5109 c-20 -6 -227 -206 -632 -611 l-602 -602 -121 58 c-372
176 -668 249 -1010 249 -354 0 -692 -88 -1055 -273 -476 -243 -988 -676 -1387
-1174 -105 -130 -125 -173 -109 -231 27 -100 449 -566 735 -812 96 -82 329
-263 406 -315 l25 -16 -578 -579 c-471 -472 -579 -585 -588 -616 -28 -101 64
-199 171 -181 30 5 353 324 2478 2448 2053 2052 2444 2447 2453 2479 20 75
-26 156 -102 177 -39 11 -43 11 -84 -1z m-2105 -1529 c116 -30 296 -117 369
-177 3 -2 -43 -52 -103 -112 l-107 -108 -86 43 c-198 99 -439 105 -637 15
-400 -181 -561 -667 -347 -1046 l29 -52 -108 -108 c-60 -60 -111 -107 -113
-104 -58 70 -137 232 -173 354 -35 122 -44 328 -19 459 39 210 127 384 270
535 154 163 335 264 553 312 121 26 350 21 472 -11z"/>
<path d="M3873 3228 c-303 -305 -321 -324 -311 -348 45 -112 61 -359 33 -507
-82 -433 -415 -766 -848 -848 -147 -28 -371 -15 -495 29 l-39 14 -243 -243
-242 -242 155 -52 c509 -167 970 -154 1470 41 561 219 1172 697 1649 1291 105
131 125 174 109 232 -23 84 -359 469 -610 699 -130 119 -290 255 -301 256 -3
0 -150 -145 -327 -322z"/>
<path d="M2881 2236 l-414 -414 50 -7 c61 -8 198 10 277 36 243 82 436 290
491 532 19 83 27 194 18 235 l-8 32 -414 -414z"/>
</g>
</svg>
