<?xml version="1.0" standalone="no"?>
<!DOCTYPE svg PUBLIC "-//W3C//DTD SVG 20010904//EN"
 "http://www.w3.org/TR/2001/REC-SVG-20010904/DTD/svg10.dtd">
<svg version="1.0" xmlns="http://www.w3.org/2000/svg"
 width="512.000000pt" height="512.000000pt" viewBox="0 0 512.000000 512.000000"
 preserveAspectRatio="xMidYMid meet">

<g transform="translate(0.000000,512.000000) scale(0.100000,-0.100000)"
fill="#4f5d73" stroke="none">
<path d="M3285 5109 c-245 -23 -511 -112 -715 -238 -401 -249 -669 -633 -772
-1104 -19 -88 -22 -133 -23 -322 0 -192 3 -234 23 -328 59 -273 170 -511 334
-716 37 -46 68 -87 68 -90 0 -4 -70 -76 -155 -161 l-154 -154 -24 22 c-61 57
-181 65 -261 18 -22 -14 -379 -364 -793 -778 -675 -676 -755 -759 -780 -813
-94 -206 55 -439 282 -439 141 0 99 -36 943 807 414 414 764 771 778 793 47
80 39 200 -18 261 l-22 24 154 154 c85 85 157 155 161 155 3 0 44 -31 90 -68
209 -167 464 -284 744 -339 140 -28 484 -25 622 5 329 72 601 215 836 441 675
648 684 1723 22 2386 -284 283 -641 449 -1046 485 -128 11 -165 11 -294 -1z
m470 -168 c317 -74 573 -216 786 -437 207 -216 330 -447 400 -749 33 -143 37
-404 10 -564 -96 -563 -489 -1021 -1030 -1201 -178 -59 -276 -74 -486 -74
-199 1 -308 18 -479 75 -526 176 -919 630 -1022 1184 -25 134 -25 400 -1 535
116 629 613 1125 1244 1240 147 27 442 22 578 -9z m-1911 -3101 c70 -69 78
-81 78 -115 0 -34 -8 -46 -76 -114 l-76 -76 -117 117 -118 118 70 71 c39 39
79 74 90 79 37 15 70 -2 149 -80z m-294 -295 l115 -115 -625 -626 c-344 -344
-637 -632 -652 -640 -70 -37 -166 -8 -215 65 -25 38 -31 116 -12 154 11 21
1259 1277 1269 1277 3 0 57 -52 120 -115z"/>
<path d="M3205 4774 c-165 -30 -335 -95 -470 -179 -134 -83 -161 -115 -143
-167 11 -30 55 -52 84 -41 10 5 58 34 106 66 591 392 1405 179 1733 -454 208
-402 172 -902 -93 -1265 -16 -22 -32 -50 -36 -61 -15 -48 42 -100 90 -83 65
24 206 275 262 465 53 178 68 428 36 616 -30 182 -110 379 -217 539 -64 96
-251 283 -347 347 -158 106 -357 187 -535 217 -113 20 -360 20 -470 0z"/>
<path d="M2387 4280 c-66 -52 -198 -299 -242 -455 -93 -325 -67 -665 75 -962
308 -646 1058 -941 1723 -677 177 71 357 192 357 241 0 32 -38 73 -68 73 -15
0 -60 -23 -107 -55 -372 -250 -836 -281 -1230 -83 -168 85 -357 252 -460 408
-273 416 -270 939 10 1355 62 92 68 123 29 154 -33 26 -54 26 -87 1z"/>
<path d="M2830 3890 c-37 -37 -26 -69 45 -140 l64 -64 -64 -67 c-73 -75 -83
-109 -42 -147 40 -38 70 -29 144 42 l68 64 67 -64 c72 -70 99 -78 136 -44 40
37 30 74 -40 146 l-61 64 61 64 c51 53 62 70 62 99 0 42 -25 67 -69 67 -26 0
-45 -12 -97 -62 l-65 -62 -62 62 c-70 69 -109 80 -147 42z"/>
<path d="M3630 3890 c-36 -36 -26 -66 44 -138 l65 -67 -65 -66 c-72 -75 -80
-104 -39 -144 40 -41 69 -33 143 39 l67 65 66 -65 c73 -70 103 -80 139 -44 38
38 27 77 -42 147 l-62 62 62 65 c51 53 62 70 62 99 0 42 -25 67 -69 67 -26 0
-45 -12 -97 -62 l-65 -62 -62 62 c-70 69 -109 80 -147 42z"/>
<path d="M3273 3090 c-85 -22 -137 -47 -220 -107 -89 -62 -106 -108 -60 -151
33 -31 69 -27 116 12 59 49 101 74 166 96 166 57 345 26 487 -86 33 -26 67
-44 82 -44 37 0 66 33 66 74 0 29 -8 41 -47 75 -152 130 -391 183 -590 131z"/>
</g>
</svg>
